<?xml version='1.0' encoding='UTF-8' standalone='no'?>
<!-- Created with Fritzing (http://www.fritzing.org/) -->
<svg xmlns="http://www.w3.org/2000/svg" viewBox="0 0 249.1 109.959" version="1.2" height="1.52721in" xmlns:svg="http://www.w3.org/2000/svg" y="0in" baseProfile="tiny" width="3.45972in" x="0in" >
 <g transform="matrix(-1, 0, 0, 1, 249.1, 0)">
  <g partID="854214121">
   <g id="silkscreen">
    <rect stroke="black" stroke-width="0.576" height="109.383" y="0.288" width="248.524" x="0.288" fill="none"/>
   </g>
  </g>
  <g partID="854214120">
   <g id="board">
    <rect stroke="black" stroke-width="0.5" height="109.383" id="boardoutline" y="0.288" fill-opacity="0.5" width="248.524" x="0.288" fill="none"/>
   </g>
  </g>
  <g partID="854214121">
   <g id="silkscreen">
    <rect stroke="black" stroke-width="0.576" height="109.383" y="0.288" width="248.524" x="0.288" fill="none"/>
   </g>
  </g>
  <g partID="854216651">
   <g transform="translate(164.622,22.2211)">
    <g transform="matrix(0,1,-1,0,0,0)">
     <g transform="matrix(1, 0, 0, 1, 53.104, 4.304)">
      <g id="silkscreen">
       <g transform="matrix(0.955169, 0, 0, 1.23954, -5.1507, -0.784008)">
        <g>
         <g gorn="0.1.0.0.0.0.2.0.0.0.0">
          <line stroke="black" stroke-width="0.6" id="line4" x2="-49.904" y1="-1.424" x1="-49.904" fill="none" y2="106.63" gorn="0.1.0.0.0.0.2.0.0.0.0.0"/>
          <line stroke="black" stroke-width="0.6" id="line6" x2="23.6168" y1="106.63" x1="23.6168" fill="none" y2="-1.424" gorn="0.1.0.0.0.0.2.0.0.0.0.1"/>
          <line stroke="black" stroke-width="0.6" id="line8" x2="23.2168" y1="106.63" x1="-49.904" fill="none" y2="106.63" gorn="0.1.0.0.0.0.2.0.0.0.0.2"/>
          <line stroke="black" stroke-width="0.6" id="line10" x2="23.376" y1="-2.624" x1="-49.904" fill="none" y2="-2.624" gorn="0.1.0.0.0.0.2.0.0.0.0.3"/>
         </g>
        </g>
       </g>
      </g>
     </g>
    </g>
   </g>
  </g>
  <g partID="854216691">
   <g transform="translate(201.561,44.0805)">
    <g transform="matrix(-1,0,0,-1,0,0)">
     <g id="silkscreen">
      <line stroke="black" stroke-linecap="round" stroke-width="0.432001" x2="17.2545" y1="0.359999" x1="3.79276" y2="0.359999" class="other"/>
      <line stroke="black" stroke-linecap="round" stroke-width="0.432001" x2="17.2545" y1="8.71085" x1="3.79276" y2="8.71085" class="other"/>
      <rect stroke="none" stroke-linecap="round" stroke-width="0" height="8.78767" y="0.139748" width="2.40917" x="1.41619" fill="black" class="other"/>
      <rect stroke="none" stroke-linecap="round" stroke-width="0" height="8.78767" y="0.139748" width="2.40917" x="17.1842" fill="black" class="other"/>
     </g>
    </g>
   </g>
  </g>
  <g partID="854216701">
   <g transform="translate(167.51,50.8489)">
    <g id="silkscreen">
     <line stroke="black" stroke-width="0.72" x2="10.584" y1="3.096" x1="5.4" y2="3.096"/>
     <line stroke="black" stroke-width="0.72" x2="28.8" y1="3.096" x1="24.984" y2="3.096"/>
     <line stroke="black" stroke-width="0.72" x2="24.984" y1="0.72" x1="10.584" y2="0.72"/>
     <line stroke="black" stroke-width="0.72" x2="24.984" y1="0.72" x1="24.984" y2="5.472"/>
     <line stroke="black" stroke-width="0.72" x2="10.584" y1="5.472" x1="24.984" y2="5.472"/>
     <line stroke="black" stroke-width="0.72" x2="10.584" y1="5.472" x1="10.584" y2="0.72"/>
    </g>
   </g>
  </g>
  <g partID="854216711">
   <g transform="translate(8.49782,100.457)">
    <g transform="matrix(0,-1,1,0,0,0)">
     <g id="silkscreen">
      <line stroke="black" stroke-width="0.72" id="line11" x2="21.24" y1="0.36" x1="7.2" y2="0.36"/>
      <line stroke="black" stroke-width="0.72" id="line13" x2="21.24" y1="0.36" x1="21.24" y2="6.192"/>
      <line stroke="black" stroke-width="0.72" id="line15" x2="7.2" y1="6.192" x1="21.24" y2="6.192"/>
      <line stroke="black" stroke-width="0.72" id="line17" x2="7.2" y1="6.192" x1="7.2" y2="0.36"/>
     </g>
    </g>
   </g>
  </g>
  <g partID="854216681">
   <g transform="translate(187.711,32.0648)">
    <g transform="matrix(0.707107,-0.707107,0.707107,0.707107,0,0)">
     <g id="silkscreen">
      <line stroke="black" stroke-width="0.72" x2="10.584" y1="3.096" x1="5.4" y2="3.096"/>
      <line stroke="black" stroke-width="0.72" x2="28.8" y1="3.096" x1="24.984" y2="3.096"/>
      <line stroke="black" stroke-width="0.72" x2="24.984" y1="0.72" x1="10.584" y2="0.72"/>
      <line stroke="black" stroke-width="0.72" x2="24.984" y1="0.72" x1="24.984" y2="5.472"/>
      <line stroke="black" stroke-width="0.72" x2="10.584" y1="5.472" x1="24.984" y2="5.472"/>
      <line stroke="black" stroke-width="0.72" x2="10.584" y1="5.472" x1="10.584" y2="0.72"/>
     </g>
    </g>
   </g>
  </g>
  <g partID="854267391">
   <g transform="translate(67.6002,23.3353)">
    <g transform="matrix(-1,0,0,-1,0,0)">
     <g id="silkscreen" gorn="0.1">
      <line stroke="black" stroke-linecap="round" stroke-width="0.576" x2="54.1462" y1="0.287999" x1="0.288" y2="0.287999" class="other"/>
      <line stroke="black" stroke-linecap="round" stroke-width="0.576" x2="54.1462" y1="0.287999" x1="54.1462" y2="17.8628" class="other"/>
      <line stroke="black" stroke-linecap="round" stroke-width="0.576" x2="0.288" y1="17.8628" x1="54.1462" y2="17.8628" class="other"/>
      <line stroke="black" stroke-linecap="round" stroke-width="0.576" x2="0.288" y1="17.8628" x1="0.288" y2="0.287999" class="other"/>
      <circle stroke="black" stroke-width="0.576" cx="2.27225" cy="2.27225" r="0.896314" fill="none" class="other"/>
     </g>
    </g>
   </g>
  </g>
  <g partID="854269131">
   <g transform="translate(233.37,4.90075)">
    <g transform="matrix(0,1,-1,0,0,0)">
     <g id="silkscreen" gorn="0.1">
      <line stroke="black" stroke-linecap="round" stroke-width="0.576" x2="54.1462" y1="0.287999" x1="0.288" y2="0.287999" class="other"/>
      <line stroke="black" stroke-linecap="round" stroke-width="0.576" x2="54.1462" y1="0.287999" x1="54.1462" y2="17.8628" class="other"/>
      <line stroke="black" stroke-linecap="round" stroke-width="0.576" x2="0.288" y1="17.8628" x1="54.1462" y2="17.8628" class="other"/>
      <line stroke="black" stroke-linecap="round" stroke-width="0.576" x2="0.288" y1="17.8628" x1="0.288" y2="0.287999" class="other"/>
      <circle stroke="black" stroke-width="0.576" cx="2.27225" cy="2.27225" r="0.896314" fill="none" class="other"/>
     </g>
    </g>
   </g>
  </g>
  <g partID="854358051">
   <g transform="translate(16.1098,65.4449)">
    <g transform="matrix(-1,0,0,-1,0,0)">
     <g id="silkscreen" gorn="0.1">
      <line stroke="black" stroke-width="0.370499" x2="0.699997" y1="0.699999" x1="0.699997" fill="none" y2="29.5"/>
      <line stroke="black" stroke-width="0.370499" x2="7.79997" y1="29.5" x1="0.699997" fill="none" y2="29.5"/>
      <line stroke="black" stroke-width="0.370499" x2="7.79997" y1="29.5" x1="7.79997" fill="none" y2="0.699999"/>
      <line stroke="black" stroke-width="0.370499" x2="3.39999" y1="0.699999" x1="0.699997" fill="none" y2="0.699999"/>
      <line stroke="black" stroke-width="0.370499" x2="7.79997" y1="0.699999" x1="5.09998" fill="none" y2="0.699999"/>
     </g>
    </g>
   </g>
  </g>
  <g partID="854216700" id="partLabel">
   <g transform="translate(177.707,56.9097)">
    <g stroke="none" font-family="'OCRA'" font-size="5" font-style="normal" id="silkscreenLabel" font-weight="normal" fill-opacity="1" fill="#000000">
     <text y="3.75" x="0">68ohm</text>
    </g>
   </g>
  </g>
  <g partID="854267390" id="partLabel">
   <g transform="translate(37.1955,8.9671)">
    <g transform="matrix(-1,0,0,-1,0,0)">
     <g stroke="none" font-family="'OCRA'" font-size="5" font-style="normal" id="silkscreenLabel" font-weight="normal" fill-opacity="1" fill="#000000">
      <text y="3.75" x="0">I2C</text>
     </g>
    </g>
   </g>
  </g>
  <g partID="854216650" id="partLabel">
   <g transform="translate(71.3458,43.0425)">
    <g stroke="none" font-family="'OCRA'" font-size="5" font-style="normal" id="silkscreenLabel" font-weight="normal" fill-opacity="1" fill="#000000">
     <text y="3.75" x="0">ESP8266 CP2102</text>
    </g>
   </g>
  </g>
  <g partID="854269130" id="partLabel">
   <g transform="translate(240.195,2.28731)">
    <g transform="matrix(0,1,-1,0,0,0)">
     <g stroke="none" font-family="'OCRA'" font-size="5" font-style="normal" id="silkscreenLabel" font-weight="normal" fill-opacity="1" fill="#000000">
      <text y="3.75" x="0">PhotoInterrupter</text>
     </g>
    </g>
   </g>
  </g>
  <g partID="854216690" id="partLabel">
   <g transform="translate(187.461,38.1585)">
    <g stroke="none" font-family="'OCRA'" font-size="5" font-style="normal" id="silkscreenLabel" font-weight="normal" fill-opacity="1" fill="#000000">
     <text y="3.75" x="0">10k</text>
    </g>
   </g>
  </g>
  <g partID="854216710" id="partLabel">
   <g transform="translate(7.21326,73.2865)">
    <g transform="matrix(0,1,-1,0,0,0)">
     <g stroke="none" font-family="'OCRA'" font-size="5" font-style="normal" id="silkscreenLabel" font-weight="normal" fill-opacity="1" fill="#000000">
      <text y="3.75" x="0">APSwitch</text>
     </g>
    </g>
   </g>
  </g>
  <g partID="854358050" id="partLabel">
   <g transform="translate(7.19062,38.2361)">
    <g transform="matrix(0,1,-1,0,0,0)">
     <g stroke="none" font-family="'OCRA'" font-size="5" font-style="normal" id="silkscreenLabel" font-weight="normal" fill-opacity="1" fill="#000000">
      <text y="3.75" x="0">buzzer</text>
     </g>
    </g>
   </g>
  </g>
  <g partID="854216680" id="partLabel">
   <g transform="translate(196.284,24.4264)">
    <g transform="matrix(0.707107,-0.707107,0.707107,0.707107,0,0)">
     <g stroke="none" font-family="'OCRA'" font-size="5" font-style="normal" id="silkscreenLabel" font-weight="normal" fill-opacity="1" fill="#000000">
      <text y="3.75" x="0">1ok</text>
     </g>
    </g>
   </g>
  </g>
  <g partID="854216652">
   <g transform="translate(164.622,22.2211)">
    <g transform="matrix(0,1,-1,0,0,0)">
     <g transform="matrix(1, 0, 0, 1, 53.104, 4.304)">
      <g id="copper1">
       <g transform="matrix(0.997054, 0, 0, 0.998472, -5.48398, 10.1258)">
        <g>
         <g gorn="0.1.0.0.0.0.3.0.0.0.0.0">
          <circle stroke="white" stroke-width="1.6416" id="connector2pad" cx="20.1632" cy="16.0288" r="1.2672" fill="white" gorn="0.1.0.0.0.0.3.0.0.0.0.0.0"/>
          <circle stroke="white" stroke-width="1.6416" id="connector42pin" cx="-44.6368" cy="1.6288" r="1.2672" fill="white" gorn="0.1.0.0.0.0.3.0.0.0.0.0.1"/>
          <circle stroke="white" stroke-width="1.6416" id="connector41pin" cx="-44.6368" cy="8.8288" r="1.2672" fill="white" gorn="0.1.0.0.0.0.3.0.0.0.0.0.2"/>
          <circle stroke="white" stroke-width="1.6416" id="connector40pin" cx="-44.6368" cy="16.0288" r="1.2672" fill="white" gorn="0.1.0.0.0.0.3.0.0.0.0.0.3"/>
          <circle stroke="white" stroke-width="1.6416" id="connector39pin" cx="-44.6368" cy="23.2288" r="1.2672" fill="white" gorn="0.1.0.0.0.0.3.0.0.0.0.0.4"/>
          <circle stroke="white" stroke-width="1.6416" id="connector38pin" cx="-44.6368" cy="30.4288" r="1.2672" fill="white" gorn="0.1.0.0.0.0.3.0.0.0.0.0.5"/>
          <circle stroke="white" stroke-width="1.6416" id="connector1pad" cx="20.1632" cy="8.8288" r="1.2672" fill="white" gorn="0.1.0.0.0.0.3.0.0.0.0.0.6"/>
          <circle stroke="white" stroke-width="1.6416" id="connector0pad" cx="20.1632" cy="1.6288" r="1.2672" fill="white" gorn="0.1.0.0.0.0.3.0.0.0.0.0.7"/>
          <circle stroke="white" stroke-width="1.6416" id="connector3pad" cx="20.1632" cy="23.2288" r="1.2672" fill="white" gorn="0.1.0.0.0.0.3.0.0.0.0.0.8"/>
          <circle stroke="white" stroke-width="1.6416" id="connector37pin" cx="-44.6368" cy="37.6288" r="1.2672" fill="white" gorn="0.1.0.0.0.0.3.0.0.0.0.0.9"/>
          <circle stroke="white" stroke-width="1.6416" id="connector36pin" cx="-44.6368" cy="44.8288" r="1.2672" fill="white" gorn="0.1.0.0.0.0.3.0.0.0.0.0.10"/>
          <circle stroke="white" stroke-width="1.6416" id="connector35pin" cx="-44.6368" cy="52.0288" r="1.2672" fill="white" gorn="0.1.0.0.0.0.3.0.0.0.0.0.11"/>
          <circle stroke="white" stroke-width="1.6416" id="connector34pin" cx="-44.6368" cy="59.2288" r="1.2672" fill="white" gorn="0.1.0.0.0.0.3.0.0.0.0.0.12"/>
          <circle stroke="white" stroke-width="1.6416" id="connector33pin" cx="-44.6368" cy="66.4288" r="1.2672" fill="white" gorn="0.1.0.0.0.0.3.0.0.0.0.0.13"/>
          <circle stroke="white" stroke-width="1.6416" id="connector19pad" cx="-44.6368" cy="73.6288" r="1.2672" fill="white" gorn="0.1.0.0.0.0.3.0.0.0.0.0.14"/>
          <circle stroke="white" stroke-width="1.6416" id="connector18pad" cx="-44.6368" cy="80.8288" r="1.2672" fill="white" gorn="0.1.0.0.0.0.3.0.0.0.0.0.15"/>
          <circle stroke="white" stroke-width="1.6416" id="connector17pad" cx="-44.6368" cy="88.0288" r="1.2672" fill="white" gorn="0.1.0.0.0.0.3.0.0.0.0.0.16"/>
          <circle stroke="white" stroke-width="1.6416" id="connector16pad" cx="-44.6368" cy="95.2288" r="1.2672" fill="white" gorn="0.1.0.0.0.0.3.0.0.0.0.0.17"/>
          <circle stroke="white" stroke-width="1.6416" id="connector15pad" cx="-44.6368" cy="102.429" r="1.2672" fill="white" gorn="0.1.0.0.0.0.3.0.0.0.0.0.18"/>
          <circle stroke="white" stroke-width="1.6416" id="connector7pad" cx="20.1632" cy="52.0288" r="1.2672" fill="white" gorn="0.1.0.0.0.0.3.0.0.0.0.0.19"/>
          <circle stroke="white" stroke-width="1.6416" id="connector8pad" cx="20.1632" cy="59.2288" r="1.2672" fill="white" gorn="0.1.0.0.0.0.3.0.0.0.0.0.20"/>
          <circle stroke="white" stroke-width="1.6416" id="connector9pad" cx="20.1632" cy="66.4288" r="1.2672" fill="white" gorn="0.1.0.0.0.0.3.0.0.0.0.0.21"/>
          <circle stroke="white" stroke-width="1.6416" id="connector10pad" cx="20.1632" cy="73.6288" r="1.2672" fill="white" gorn="0.1.0.0.0.0.3.0.0.0.0.0.22"/>
          <circle stroke="white" stroke-width="1.6416" id="connector11pad" cx="20.1632" cy="80.8288" r="1.2672" fill="white" gorn="0.1.0.0.0.0.3.0.0.0.0.0.23"/>
          <circle stroke="white" stroke-width="1.6416" id="connector12pad" cx="20.1632" cy="88.0288" r="1.2672" fill="white" gorn="0.1.0.0.0.0.3.0.0.0.0.0.24"/>
          <circle stroke="white" stroke-width="1.6416" id="connector13pad" cx="20.1632" cy="95.2288" r="1.2672" fill="white" gorn="0.1.0.0.0.0.3.0.0.0.0.0.25"/>
          <circle stroke="white" stroke-width="1.6416" id="connector14pad" cx="20.1632" cy="102.429" r="1.2672" fill="white" gorn="0.1.0.0.0.0.3.0.0.0.0.0.26"/>
          <circle stroke="white" stroke-width="1.6416" id="connector4pad" cx="20.1632" cy="30.4288" r="1.2672" fill="white" gorn="0.1.0.0.0.0.3.0.0.0.0.0.27"/>
          <circle stroke="white" stroke-width="1.6416" id="connector5pad" cx="20.1632" cy="37.6288" r="1.2672" fill="white" gorn="0.1.0.0.0.0.3.0.0.0.0.0.28"/>
          <circle stroke="white" stroke-width="1.6416" id="connector6pad" cx="20.1632" cy="44.8288" r="1.2672" fill="white" gorn="0.1.0.0.0.0.3.0.0.0.0.0.29"/>
         </g>
        </g>
       </g>
      </g>
     </g>
    </g>
   </g>
  </g>
  <g partID="854216690">
   <g transform="translate(201.561,44.0805)">
    <g transform="matrix(-1,0,0,-1,0,0)">
     <g id="copper1">
      <rect stroke="white" stroke-linecap="round" stroke-width="0.72" height="9.07085" id="connector0pad" y="0" width="5.10237" x="0" connectorname="1" fill="white"/>
      <rect stroke="white" stroke-linecap="round" stroke-width="0.72" height="9.07085" id="connector1pad" y="0" width="5.10237" x="15.874" connectorname="2" fill="white"/>
      <g id="copper0"/>
     </g>
    </g>
   </g>
  </g>
  <g partID="854216702">
   <g transform="translate(167.51,50.8489)">
    <g id="copper1">
     <!-- <rect width="55" x="10" y="15.5" fill="none" height="55" stroke="rgb(255, 191, 0)" stroke-width="20" />  -->
     <circle stroke="white" stroke-width="2.16" cx="2.7" id="connector0pin" cy="3.096" r="1.98" fill="white"/>
     <circle stroke="white" stroke-width="2.16" cx="31.5" id="connector1pin" cy="3.096" r="1.98" fill="white"/>
    </g>
   </g>
  </g>
  <g partID="854216712">
   <g transform="translate(8.49782,100.457)">
    <g transform="matrix(0,-1,1,0,0,0)">
     <g id="copper1">
      <g id="copper0">
       <rect stroke="white" stroke-width="2.16" height="5.184" id="rect20" y="0.72" width="5.184" x="0.72" fill="white"/>
       <circle stroke="white" stroke-width="2.16" cx="3.312" id="connector0pin" cy="3.312" r="2.592" fill="white"/>
       <circle stroke="white" stroke-width="2.16" cx="24.912" id="connector1pin" cy="3.312" r="2.592" fill="white"/>
      </g>
     </g>
    </g>
   </g>
  </g>
  <g partID="854216682">
   <g transform="translate(187.711,32.0648)">
    <g transform="matrix(0.707107,-0.707107,0.707107,0.707107,0,0)">
     <g id="copper1">
      <!-- <rect width="55" x="10" y="15.5" fill="none" height="55" stroke="rgb(255, 191, 0)" stroke-width="20" />  -->
      <circle stroke="white" stroke-width="2.16" cx="2.7" id="connector0pin" cy="3.096" r="1.98" fill="white"/>
      <circle stroke="white" stroke-width="2.16" cx="31.5" id="connector1pin" cy="3.096" r="1.98" fill="white"/>
     </g>
    </g>
   </g>
  </g>
  <g partID="854267392">
   <g transform="translate(67.6002,23.3353)">
    <g transform="matrix(-1,0,0,-1,0,0)">
     <g id="copper1" gorn="0.0">
      <circle stroke="white" stroke-width="1.44" cx="5.39036" id="connector0pad" cy="5.39035" r="1.35213" connectorname="1" fill="white" gorn="0.0.0"/>
      <path stroke="white" stroke-width="0.72" d="m3.67823,3.67823,3.42425,0,0,3.42425,-3.42425,0,0,-3.42425zM4.39823,5.39035a0.992125,0.992124,0,1,0,1.98425,0,0.992125,0.992124,0,1,0,-1.98425,0z" fill="white"/>
      <circle stroke="white" stroke-width="1.44" cx="49.0439" id="connector3pad" cy="5.39035" r="1.35213" connectorname="4" fill="white" gorn="0.0.2"/>
      <circle stroke="white" stroke-width="1.44" cx="5.39036" id="connector1pad" cy="12.7604" r="1.35213" connectorname="2" fill="white" gorn="0.0.3"/>
      <circle stroke="white" stroke-width="1.44" cx="49.0439" id="connector2pad" cy="12.7604" r="1.35213" connectorname="3" fill="white" gorn="0.0.4"/>
      <g id="copper0" gorn="0.0.5">
       <circle stroke="white" stroke-width="1.44" cx="5.39036" id="connector0pad" cy="5.39035" r="1.35213" connectorname="1" fill="white" gorn="0.0.5.0"/>
       <path stroke="white" stroke-width="0.72" d="m3.67823,3.67823,3.42425,0,0,3.42425,-3.42425,0,0,-3.42425zM4.39823,5.39035a0.992125,0.992124,0,1,0,1.98425,0,0.992125,0.992124,0,1,0,-1.98425,0z" fill="white"/>
       <circle stroke="white" stroke-width="1.44" cx="49.0439" id="connector3pad" cy="5.39035" r="1.35213" connectorname="4" fill="white" gorn="0.0.5.2"/>
       <circle stroke="white" stroke-width="1.44" cx="5.39036" id="connector1pad" cy="12.7604" r="1.35213" connectorname="2" fill="white" gorn="0.0.5.3"/>
       <circle stroke="white" stroke-width="1.44" cx="49.0439" id="connector2pad" cy="12.7604" r="1.35213" connectorname="3" fill="white" gorn="0.0.5.4"/>
      </g>
     </g>
    </g>
   </g>
  </g>
  <g partID="854269132">
   <g transform="translate(233.37,4.90075)">
    <g transform="matrix(0,1,-1,0,0,0)">
     <g id="copper1" gorn="0.0">
      <circle stroke="white" stroke-width="1.44" cx="5.39036" id="connector0pad" cy="5.39035" r="1.35213" connectorname="1" fill="white" gorn="0.0.0"/>
      <path stroke="white" stroke-width="0.72" d="m3.67823,3.67823,3.42425,0,0,3.42425,-3.42425,0,0,-3.42425zM4.39823,5.39035a0.992125,0.992124,0,1,0,1.98425,0,0.992125,0.992124,0,1,0,-1.98425,0z" fill="white"/>
      <circle stroke="white" stroke-width="1.44" cx="49.0439" id="connector3pad" cy="5.39035" r="1.35213" connectorname="4" fill="white" gorn="0.0.2"/>
      <circle stroke="white" stroke-width="1.44" cx="5.39036" id="connector1pad" cy="12.7604" r="1.35213" connectorname="2" fill="white" gorn="0.0.3"/>
      <circle stroke="white" stroke-width="1.44" cx="49.0439" id="connector2pad" cy="12.7604" r="1.35213" connectorname="3" fill="white" gorn="0.0.4"/>
      <g id="copper0" gorn="0.0.5">
       <circle stroke="white" stroke-width="1.44" cx="5.39036" id="connector0pad" cy="5.39035" r="1.35213" connectorname="1" fill="white" gorn="0.0.5.0"/>
       <path stroke="white" stroke-width="0.72" d="m3.67823,3.67823,3.42425,0,0,3.42425,-3.42425,0,0,-3.42425zM4.39823,5.39035a0.992125,0.992124,0,1,0,1.98425,0,0.992125,0.992124,0,1,0,-1.98425,0z" fill="white"/>
       <circle stroke="white" stroke-width="1.44" cx="49.0439" id="connector3pad" cy="5.39035" r="1.35213" connectorname="4" fill="white" gorn="0.0.5.2"/>
       <circle stroke="white" stroke-width="1.44" cx="5.39036" id="connector1pad" cy="12.7604" r="1.35213" connectorname="2" fill="white" gorn="0.0.5.3"/>
       <circle stroke="white" stroke-width="1.44" cx="49.0439" id="connector2pad" cy="12.7604" r="1.35213" connectorname="3" fill="white" gorn="0.0.5.4"/>
      </g>
     </g>
    </g>
   </g>
  </g>
  <g partID="854358052">
   <g transform="translate(16.1098,65.4449)">
    <g transform="matrix(-1,0,0,-1,0,0)">
     <g id="copper1" gorn="0.2.0">
      <circle stroke="white" stroke-width="1.872" id="connector0pin" cx="4.29998" cy="4.3" r="1.59999" fill="white" gorn="0.2.0.0"/>
      <circle stroke="white" stroke-width="1.872" id="connector1pin" cx="4.29998" cy="25.9" r="1.59999" fill="white" gorn="0.2.0.1"/>
     </g>
    </g>
   </g>
  </g>
  <g partID="854369271">
   <g transform="translate(174.392,72.5276)">
    <g id="copper1">
     <circle stroke="white" stroke-width="1.57039" cx="3.01733" id="connector0pin" cy="3.01733" r="0.992124" fill="white"/>
    </g>
   </g>
  </g>
  <g partID="854369301">
   <g transform="translate(174.392,79.7276)">
    <g id="copper1">
     <circle stroke="white" stroke-width="1.57039" cx="3.01733" id="connector0pin" cy="3.01733" r="0.992124" fill="white"/>
    </g>
   </g>
  </g>
  <g partID="854369841">
   <g transform="translate(-0.108304,6.02678)">
    <g id="copper1">
     <circle stroke="white" stroke-width="0.72" cx="4.71811" id="nonconn0" cy="4.71811" r="3.11811" fill="white"/>
    </g>
   </g>
  </g>
  <g partID="854369871">
   <g transform="translate(237.492,99.6268)">
    <g id="copper1">
     <circle stroke="white" stroke-width="0.72" cx="4.71811" id="nonconn0" cy="4.71811" r="3.11811" fill="white"/>
    </g>
   </g>
  </g>
  <g partID="854369901">
   <g transform="translate(-0.108304,99.6268)">
    <g id="copper1">
     <circle stroke="white" stroke-width="0.72" cx="4.71811" id="nonconn0" cy="4.71811" r="3.11811" fill="white"/>
    </g>
   </g>
  </g>
  <g partID="854369931">
   <g transform="translate(237.492,6.02678)">
    <g id="copper1">
     <circle stroke="white" stroke-width="0.72" cx="4.71811" id="nonconn0" cy="4.71811" r="3.11811" fill="white"/>
    </g>
   </g>
  </g>
  <g partID="854370611">
   <g transform="translate(174.392,65.3276)">
    <g id="copper1">
     <circle stroke="white" stroke-width="1.57039" cx="3.01733" id="connector0pin" cy="3.01733" r="0.992124" fill="white"/>
    </g>
   </g>
  </g>
  <g partID="854370641">
   <g transform="translate(174.392,86.9276)">
    <g id="copper1">
     <circle stroke="white" stroke-width="1.57039" cx="3.01733" id="connector0pin" cy="3.01733" r="0.992124" fill="white"/>
    </g>
   </g>
  </g>
  <g partID="854370671">
   <g transform="translate(174.392,101.328)">
    <g id="copper1">
     <circle stroke="white" stroke-width="1.57039" cx="3.01733" id="connector0pin" cy="3.01733" r="0.992124" fill="white"/>
    </g>
   </g>
  </g>
  <g partID="854370701">
   <g transform="translate(188.792,101.328)">
    <g id="copper1">
     <circle stroke="white" stroke-width="1.57039" cx="3.01733" id="connector0pin" cy="3.01733" r="0.992124" fill="white"/>
    </g>
   </g>
  </g>
 </g>
</svg>
