<?xml version='1.0' encoding='UTF-8' standalone='no'?>
<!-- Created with Fritzing (http://www.fritzing.org/) -->
<svg xmlns="http://www.w3.org/2000/svg" viewBox="0 0 248.65 150.537" version="1.2" height="2.09079in" xmlns:svg="http://www.w3.org/2000/svg" y="0in" baseProfile="tiny" width="3.45347in" x="0in" >
 <g partID="854214120">
  <g id="board" >
   <rect stroke="black" stroke-width="0.5" height="149.961" id="boardoutline" y="0.288" fill-opacity="0.5" width="248.074" x="0.288"  fill="none"/>
  </g>
 </g>
 <g partID="854216650">
  <g transform="translate(164.905,55.6782)">
   <g transform="matrix(0,1,-1,0,0,0)">
    <g transform="matrix(1, 0, 0, 1, 53.104, 4.304)">
     <g id="copper0">
      <g transform="matrix(0.997054, 0, 0, 0.998472, -5.48398, 10.1258)">
       <g>
        <g gorn="0.1.0.0.0.0.3.0.0.0.0">
         <g id="copper1" gorn="0.1.0.0.0.0.3.0.0.0.0.0">
          <circle stroke="black" stroke-width="1.6416" id="connector2pad" cx="20.1632" cy="16.0288" r="1.2672" fill="black" gorn="0.1.0.0.0.0.3.0.0.0.0.0.0"/>
          <circle stroke="black" stroke-width="1.6416" id="connector42pin" cx="-44.6368" cy="1.6288" r="1.2672" fill="black" gorn="0.1.0.0.0.0.3.0.0.0.0.0.1"/>
          <circle stroke="black" stroke-width="1.6416" id="connector41pin" cx="-44.6368" cy="8.8288" r="1.2672" fill="black" gorn="0.1.0.0.0.0.3.0.0.0.0.0.2"/>
          <circle stroke="black" stroke-width="1.6416" id="connector40pin" cx="-44.6368" cy="16.0288" r="1.2672" fill="black" gorn="0.1.0.0.0.0.3.0.0.0.0.0.3"/>
          <circle stroke="black" stroke-width="1.6416" id="connector39pin" cx="-44.6368" cy="23.2288" r="1.2672" fill="black" gorn="0.1.0.0.0.0.3.0.0.0.0.0.4"/>
          <circle stroke="black" stroke-width="1.6416" id="connector38pin" cx="-44.6368" cy="30.4288" r="1.2672" fill="black" gorn="0.1.0.0.0.0.3.0.0.0.0.0.5"/>
          <circle stroke="black" stroke-width="1.6416" id="connector1pad" cx="20.1632" cy="8.8288" r="1.2672" fill="black" gorn="0.1.0.0.0.0.3.0.0.0.0.0.6"/>
          <circle stroke="black" stroke-width="1.6416" id="connector0pad" cx="20.1632" cy="1.6288" r="1.2672" fill="black" gorn="0.1.0.0.0.0.3.0.0.0.0.0.7"/>
          <circle stroke="black" stroke-width="1.6416" id="connector3pad" cx="20.1632" cy="23.2288" r="1.2672" fill="black" gorn="0.1.0.0.0.0.3.0.0.0.0.0.8"/>
          <circle stroke="black" stroke-width="1.6416" id="connector37pin" cx="-44.6368" cy="37.6288" r="1.2672" fill="black" gorn="0.1.0.0.0.0.3.0.0.0.0.0.9"/>
          <circle stroke="black" stroke-width="1.6416" id="connector36pin" cx="-44.6368" cy="44.8288" r="1.2672" fill="black" gorn="0.1.0.0.0.0.3.0.0.0.0.0.10"/>
          <circle stroke="black" stroke-width="1.6416" id="connector35pin" cx="-44.6368" cy="52.0288" r="1.2672" fill="black" gorn="0.1.0.0.0.0.3.0.0.0.0.0.11"/>
          <circle stroke="black" stroke-width="1.6416" id="connector34pin" cx="-44.6368" cy="59.2288" r="1.2672" fill="black" gorn="0.1.0.0.0.0.3.0.0.0.0.0.12"/>
          <circle stroke="black" stroke-width="1.6416" id="connector33pin" cx="-44.6368" cy="66.4288" r="1.2672" fill="black" gorn="0.1.0.0.0.0.3.0.0.0.0.0.13"/>
          <circle stroke="black" stroke-width="1.6416" id="connector19pad" cx="-44.6368" cy="73.6288" r="1.2672" fill="black" gorn="0.1.0.0.0.0.3.0.0.0.0.0.14"/>
          <circle stroke="black" stroke-width="1.6416" id="connector18pad" cx="-44.6368" cy="80.8288" r="1.2672" fill="black" gorn="0.1.0.0.0.0.3.0.0.0.0.0.15"/>
          <circle stroke="black" stroke-width="1.6416" id="connector17pad" cx="-44.6368" cy="88.0288" r="1.2672" fill="black" gorn="0.1.0.0.0.0.3.0.0.0.0.0.16"/>
          <circle stroke="black" stroke-width="1.6416" id="connector16pad" cx="-44.6368" cy="95.2288" r="1.2672" fill="black" gorn="0.1.0.0.0.0.3.0.0.0.0.0.17"/>
          <circle stroke="black" stroke-width="1.6416" id="connector15pad" cx="-44.6368" cy="102.429" r="1.2672" fill="black" gorn="0.1.0.0.0.0.3.0.0.0.0.0.18"/>
          <circle stroke="black" stroke-width="1.6416" id="connector7pad" cx="20.1632" cy="52.0288" r="1.2672" fill="black" gorn="0.1.0.0.0.0.3.0.0.0.0.0.19"/>
          <circle stroke="black" stroke-width="1.6416" id="connector8pad" cx="20.1632" cy="59.2288" r="1.2672" fill="black" gorn="0.1.0.0.0.0.3.0.0.0.0.0.20"/>
          <circle stroke="black" stroke-width="1.6416" id="connector9pad" cx="20.1632" cy="66.4288" r="1.2672" fill="black" gorn="0.1.0.0.0.0.3.0.0.0.0.0.21"/>
          <circle stroke="black" stroke-width="1.6416" id="connector10pad" cx="20.1632" cy="73.6288" r="1.2672" fill="black" gorn="0.1.0.0.0.0.3.0.0.0.0.0.22"/>
          <circle stroke="black" stroke-width="1.6416" id="connector11pad" cx="20.1632" cy="80.8288" r="1.2672" fill="black" gorn="0.1.0.0.0.0.3.0.0.0.0.0.23"/>
          <circle stroke="black" stroke-width="1.6416" id="connector12pad" cx="20.1632" cy="88.0288" r="1.2672" fill="black" gorn="0.1.0.0.0.0.3.0.0.0.0.0.24"/>
          <circle stroke="black" stroke-width="1.6416" id="connector13pad" cx="20.1632" cy="95.2288" r="1.2672" fill="black" gorn="0.1.0.0.0.0.3.0.0.0.0.0.25"/>
          <circle stroke="black" stroke-width="1.6416" id="connector14pad" cx="20.1632" cy="102.429" r="1.2672" fill="black" gorn="0.1.0.0.0.0.3.0.0.0.0.0.26"/>
          <circle stroke="black" stroke-width="1.6416" id="connector4pad" cx="20.1632" cy="30.4288" r="1.2672" fill="black" gorn="0.1.0.0.0.0.3.0.0.0.0.0.27"/>
          <circle stroke="black" stroke-width="1.6416" id="connector5pad" cx="20.1632" cy="37.6288" r="1.2672" fill="black" gorn="0.1.0.0.0.0.3.0.0.0.0.0.28"/>
          <circle stroke="black" stroke-width="1.6416" id="connector6pad" cx="20.1632" cy="44.8288" r="1.2672" fill="black" gorn="0.1.0.0.0.0.3.0.0.0.0.0.29"/>
         </g>
        </g>
       </g>
      </g>
     </g>
    </g>
   </g>
  </g>
 </g>
 <g partID="854216700">
  <g transform="translate(167.793,84.306)">
   <g id="copper0" >
    <g id="copper1" >
     <!-- <rect width="55" x="10" y="15.5" fill="none" height="55" stroke="rgb(255, 191, 0)" stroke-width="20" />  -->
     <circle stroke="black" stroke-width="2.16" cx="2.7" id="connector0pin" cy="3.096" r="1.98"  fill="black"/>
     <circle stroke="black" stroke-width="2.16" cx="31.5" id="connector1pin" cy="3.096" r="1.98"  fill="black"/>
    </g>
   </g>
  </g>
 </g>
 <g partID="854216710">
  <g transform="translate(8.78128,133.914)">
   <g transform="matrix(0,-1,1,0,0,0)">
    <g id="copper0" >
     <rect stroke="black" stroke-width="2.16" height="5.184" id="rect20" y="0.72" width="5.184" x="0.72"  fill="black"/>
     <circle stroke="black" stroke-width="2.16" cx="3.312" id="connector0pin" cy="3.312" r="2.592"  fill="black"/>
     <circle stroke="black" stroke-width="2.16" cx="24.912" id="connector1pin" cy="3.312" r="2.592"  fill="black"/>
    </g>
   </g>
  </g>
 </g>
 <g partID="854216680">
  <g transform="translate(187.995,65.5219)">
   <g transform="matrix(0.707107,-0.707107,0.707107,0.707107,0,0)">
    <g id="copper0" >
     <g id="copper1" >
      <!-- <rect width="55" x="10" y="15.5" fill="none" height="55" stroke="rgb(255, 191, 0)" stroke-width="20" />  -->
      <circle stroke="black" stroke-width="2.16" cx="2.7" id="connector0pin" cy="3.096" r="1.98"  fill="black"/>
      <circle stroke="black" stroke-width="2.16" cx="31.5" id="connector1pin" cy="3.096" r="1.98"  fill="black"/>
     </g>
    </g>
   </g>
  </g>
 </g>
 <g partID="854216730">
  <g transform="translate(169.197,94.5924)">
   <g id="copper0" >
    <circle stroke="black" stroke-width="2.16" cx="44.496" id="connector0pin" cy="7.20939" r="2.088"  fill="black" gorn="0.5.0.0.0"/>
    <circle stroke="black" stroke-width="2.16" cx="37.296" id="connector1pin" cy="7.20939" r="2.088"  fill="black" gorn="0.5.0.0.1"/>
    <circle stroke="black" stroke-width="2.16" cx="30.096" id="connector2pin" cy="7.20939" r="2.088"  fill="black" gorn="0.5.0.0.2"/>
    <circle stroke="black" stroke-width="2.16" cx="22.896" id="connector3pin" cy="7.20939" r="2.088"  fill="black" gorn="0.5.0.0.3"/>
    <circle stroke="black" stroke-width="2.16" cx="15.696" id="connector4pin" cy="7.20939" r="2.088"  fill="black" gorn="0.5.0.0.4"/>
    <circle stroke="black" stroke-width="2.16" id="connector5pin" cx="8.47701" cy="7.17651" r="2.088"  fill="black" gorn="0.5.0.0.4"/>
   </g>
  </g>
 </g>
 <g partID="854267390">
  <g transform="translate(24.8537,2.35808)">
   <g transform="matrix(0,1,-1,0,0,0)">
    <g id="copper0"  gorn="0.0.5">
     <circle stroke="black" stroke-width="1.44" cx="5.39036" id="connector0pad" cy="5.39035" r="1.35213" connectorname="1"  fill="black" gorn="0.0.5.0"/>
     <path stroke="black" stroke-width="0.72" d="m3.67823,3.67823,3.42425,0,0,3.42425,-3.42425,0,0,-3.42425zM4.39823,5.39035a0.992125,0.992124,0,1,0,1.98425,0,0.992125,0.992124,0,1,0,-1.98425,0z"  fill="black"/>
     <circle stroke="black" stroke-width="1.44" cx="49.0439" id="connector3pad" cy="5.39035" r="1.35213" connectorname="4"  fill="black" gorn="0.0.5.2"/>
     <circle stroke="black" stroke-width="1.44" cx="5.39036" id="connector1pad" cy="12.7604" r="1.35213" connectorname="2"  fill="black" gorn="0.0.5.3"/>
     <circle stroke="black" stroke-width="1.44" cx="49.0439" id="connector2pad" cy="12.7604" r="1.35213" connectorname="3"  fill="black" gorn="0.0.5.4"/>
    </g>
   </g>
  </g>
 </g>
 <g partID="854269130">
  <g transform="translate(233.654,38.3578)">
   <g transform="matrix(0,1,-1,0,0,0)">
    <g id="copper0"  gorn="0.0.5">
     <circle stroke="black" stroke-width="1.44" cx="5.39036" id="connector0pad" cy="5.39035" r="1.35213" connectorname="1"  fill="black" gorn="0.0.5.0"/>
     <path stroke="black" stroke-width="0.72" d="m3.67823,3.67823,3.42425,0,0,3.42425,-3.42425,0,0,-3.42425zM4.39823,5.39035a0.992125,0.992124,0,1,0,1.98425,0,0.992125,0.992124,0,1,0,-1.98425,0z"  fill="black"/>
     <circle stroke="black" stroke-width="1.44" cx="49.0439" id="connector3pad" cy="5.39035" r="1.35213" connectorname="4"  fill="black" gorn="0.0.5.2"/>
     <circle stroke="black" stroke-width="1.44" cx="5.39036" id="connector1pad" cy="12.7604" r="1.35213" connectorname="2"  fill="black" gorn="0.0.5.3"/>
     <circle stroke="black" stroke-width="1.44" cx="49.0439" id="connector2pad" cy="12.7604" r="1.35213" connectorname="3"  fill="black" gorn="0.0.5.4"/>
    </g>
   </g>
  </g>
 </g>
 <g partID="854358050">
  <g transform="translate(16.3933,98.902)">
   <g transform="matrix(-1,0,0,-1,0,0)">
    <g id="copper0"  gorn="0.2">
     <g id="copper1"  gorn="0.2.0">
      <circle stroke="black" stroke-width="1.872" id="connector0pin" cx="4.29998" cy="4.3" r="1.59999"  fill="black" gorn="0.2.0.0"/>
      <circle stroke="black" stroke-width="1.872" id="connector1pin" cx="4.29998" cy="25.9" r="1.59999"  fill="black" gorn="0.2.0.1"/>
     </g>
    </g>
   </g>
  </g>
 </g>
</svg>
